<?xml version="1.0"?>
<svg xmlns="http://www.w3.org/2000/svg" viewBox="0 0 16 16">
    <path style="line-height:normal;text-indent:0;text-align:start;text-decoration-line:none;text-decoration-style:solid;text-decoration-color:#000;text-transform:none;block-progression:tb;isolation:auto;mix-blend-mode:normal" d="M 5.4921875 0.9921875 A 0.50005 0.50005 0 0 0 5 1.5 L 5 2.5 A 0.50005 0.50005 0 1 0 6 2.5 L 6 1.5 A 0.50005 0.50005 0 0 0 5.4921875 0.9921875 z M 3.4941406 1.9941406 A 0.50005 0.50005 0 0 0 3.1464844 2.8535156 L 4.1464844 3.8535156 A 0.50005 0.50005 0 1 0 4.8535156 3.1464844 L 3.8535156 2.1464844 A 0.50005 0.50005 0 0 0 3.4941406 1.9941406 z M 7.4902344 1.9960938 A 0.50005 0.50005 0 0 0 7.1464844 2.1464844 L 6.1464844 3.1464844 A 0.50005 0.50005 0 1 0 6.8535156 3.8535156 L 7.8535156 2.8535156 A 0.50005 0.50005 0 0 0 7.4902344 1.9960938 z M 11.863281 2.0117188 C 11.561283 2.0424287 11.266302 2.1651935 11.025391 2.3847656 A 0.50005 0.50005 0 0 0 11.013672 2.3964844 L 6.5449219 6.7578125 C 6.3647724 6.5103224 6.259893 6.3328554 5.9609375 6.0332031 A 0.50005 0.50005 0 0 0 5.9589844 6.03125 C 5.522804 5.595652 4.9833046 5.2763813 4.4277344 5.1113281 C 3.8721641 4.9462749 3.2752795 4.9255076 2.7714844 5.2226562 C 2.3119359 5.4930658 2.0761719 5.9140625 2.0761719 5.9140625 A 0.50005 0.50005 0 0 0 2.1132812 6.4960938 L 3.5292969 8.2148438 L 4.0058594 11.082031 A 0.50005 0.50005 0 0 0 4.1367188 11.34375 L 6.8632812 14.220703 A 0.50005 0.50005 0 0 0 6.8730469 14.230469 C 7.8962717 15.253694 9.5715935 15.253349 10.595703 14.230469 L 11.041016 13.783203 L 10.833984 13.783203 A 0.50005 0.50005 0 0 0 11.189453 13.636719 L 13.613281 11.195312 L 13.611328 11.195312 C 14.121563 10.683499 14.234503 9.8377355 13.710938 9.2597656 C 13.515099 9.0438066 13.239502 8.9631636 12.96875 8.9023438 C 12.99053 8.5349981 12.88931 8.1677496 12.611328 7.890625 C 12.424076 7.7033726 12.169188 7.6513825 11.923828 7.5917969 C 11.981658 7.1897563 11.915828 6.7801163 11.609375 6.4746094 C 11.517155 6.3826624 11.383267 6.3949224 11.273438 6.3359375 L 13.025391 4.5644531 L 13 4.5878906 C 13.474419 4.1684047 13.529095 3.5175315 13.304688 2.9511719 A 0.50005 0.50005 0 0 0 13.210938 2.6015625 C 12.953366 2.2518939 12.567664 2.0514922 12.166016 2.0117188 C 12.065604 2.0017753 11.963947 2.0014821 11.863281 2.0117188 z M 12.068359 2.9980469 C 12.196564 3.0108515 12.319821 3.0779813 12.40625 3.1953125 C 12.556098 3.3984287 12.52687 3.6707938 12.337891 3.8378906 A 0.50005 0.50005 0 0 0 12.3125 3.8613281 L 9.7324219 6.4765625 L 9.7304688 6.4785156 A 0.50005 0.50005 0 0 0 10.439453 7.1816406 C 10.571561 7.0491238 10.770896 7.0482394 10.904297 7.1816406 A 0.50005 0.50005 0 0 0 10.904297 7.1835938 C 11.036814 7.3157015 11.037698 7.5130831 10.904297 7.6464844 A 0.50005 0.50005 0 0 0 10.900391 7.6503906 L 10.695312 7.859375 L 10.691406 7.8632812 A 0.50005 0.50005 0 0 0 11.402344 8.5664062 C 11.508979 8.4597708 11.774169 8.4675283 11.904297 8.5976562 C 12.036814 8.7297641 12.037698 8.9271456 11.904297 9.0605469 A 0.50005 0.50005 0 0 0 11.896484 9.0683594 L 11.785156 9.1855469 L 11.777344 9.1933594 A 0.50005 0.50005 0 0 0 12.492188 9.8925781 C 12.580277 9.8042121 12.88263 9.8345176 12.970703 9.9316406 C 13.061553 10.031635 13.039617 10.3545 12.904297 10.490234 A 0.50005 0.50005 0 0 0 12.902344 10.490234 L 10.480469 12.929688 L 10.478516 12.931641 L 9.8886719 13.521484 C 9.2467816 14.162604 8.2208533 14.16226 7.5800781 13.521484 L 4.96875 10.767578 L 4.4941406 7.9179688 A 0.50005 0.50005 0 0 0 4.3867188 7.6816406 L 3.1660156 6.1992188 C 3.2168365 6.1483795 3.227507 6.1144588 3.2792969 6.0839844 C 3.4435017 5.987133 3.7623984 5.9573657 4.1425781 6.0703125 C 4.5227579 6.1832593 4.9391335 6.4278324 5.2519531 6.7402344 C 5.621094 7.1107042 6.0859375 7.78125 6.0859375 7.78125 A 0.50005 0.50005 0 0 0 6.8496094 7.8574219 L 11.699219 3.125 C 11.807004 3.0267624 11.940155 2.9852422 12.068359 2.9980469 z" font-weight="400" font-family="sans-serif" white-space="normal" overflow="visible"/>
</svg>
